#!OML:ASF G:\JayActor3\Patient Classification 1\Patient 1\Session 2\male.ASF
:FULLY-SPECIFIED
:DEGREES
672
root -39.5647 16.4833 -6.19715 -362.939 50.0025 355.237
lowerback 4.17552 0.660176 -6.87768
upperback 5.3388 0.888523 -1.76544
thorax 3.12824 0.277837 2.01044
lowerneck -8.71197 2.69883 2.6094
upperneck 20.9578 4.09602 -2.78176
head 8.0164 1.95659 -0.960408
rclavicle 4.77083e-014 -2.22639e-014
rhumerus -42.0157 4.29401 -90.5987
rradius 31.9491
rwrist -4.23611
rhand -16.98 3.68641
rfingers 7.12502
rthumb 9.25463 -26.0905
lclavicle 4.77083e-014 -2.22639e-014
lhumerus -24.6099 -42.7588 91.5259
lradius 77.0049
lwrist 30.4813
lhand -22.6711 19.865
lfingers 7.12502
lthumb 3.76073 49.8115
rfemur -23.7156 15.804 10.7747
rtibia 49.6416
rfoot -24.9027 -6.79783
rtoes -3.69474
lfemur -11.9357 8.10709 -25.7948
ltibia 29.6052
lfoot -24.1532 -1.60218
ltoes -20.6756
673
root -39.545 16.4872 -6.12471 -362.875 51.2266 355.152
lowerback 4.2291 0.604104 -6.90259
upperback 5.35735 0.811339 -1.72536
thorax 3.12386 0.238459 2.06659
lowerneck -8.67891 2.63774 2.50206
upperneck 20.8301 4.01046 -2.70173
head 7.96128 1.91705 -0.924953
rclavicle 3.29983e-014 5.08889e-014
rhumerus -42.3054 4.46587 -90.6553
rradius 32.0864
rwrist -4.35389
rhand -16.9379 3.57521
rfingers 7.12502
rthumb 9.29527 -26.1999
lclavicle 3.29983e-014 5.08889e-014
lhumerus -24.4411 -43.3013 91.358
lradius 78.9554
lwrist 30.9678
lhand -22.4151 19.7779
lfingers 7.12502
lthumb 4.00793 49.7199
rfemur -23.8422 16.6567 10.2043
rtibia 48.4707
rfoot -25.0547 -6.1
rtoes -3.35766
lfemur -11.8569 7.66074 -25.6221
ltibia 29.5826
lfoot -24.2993 -2.31151
ltoes -20.6521
674
root -39.5232 16.4902 -6.05289 -362.819 52.4397 355.07
lowerback 4.27859 0.571328 -6.89047
upperback 5.41186 0.770057 -1.71463
thorax 3.15701 0.217537 2.07134
lowerneck -8.7167 2.55018 2.42704
upperneck 20.6825 3.87376 -2.59636
head 7.91141 1.85685 -0.890562
rclavicle -3.97569e-016 2.70347e-014
rhumerus -42.4889 4.54352 -90.7026
rradius 32.2083
rwrist -4.43376
rhand -16.8497 3.5271
rfingers 7.12502
rthumb 9.38032 -26.2442
lclavicle -3.97569e-016 2.70347e-014
lhumerus -24.1759 -43.8872 91.0847
lradius 80.7878
lwrist 31.4529
lhand -22.1356 19.705
lfingers 7.12502
lthumb 4.27783 49.6418
rfemur -23.9423 17.3063 9.67988
rtibia 47.361
rfoot -25.1099 -5.57263
rtoes -3.81253
lfemur -11.7757 7.22389 -25.4505
ltibia 29.5676
lfoot -24.4673 -2.99247
ltoes -20.6728
675
root -39.4993 16.4919 -5.98162 -362.769 53.6361 354.995
lowerback 4.32858 0.534547 -6.8678
upperback 5.46092 0.723212 -1.70436
thorax 3.18462 0.194466 2.06983
lowerneck -8.72471 2.46666 2.35586
upperneck 20.5282 3.74641 -2.50757
head 7.85491 1.80015 -0.861795
rclavicle 2.34566e-014 -4.45278e-014
rhumerus -42.6774 4.71201 -90.7751
rradius 32.3646
rwrist -4.56089
rhand -16.7322 3.48488
rfingers 7.12502
rthumb 9.49373 -26.2813
lclavicle 2.34566e-014 -4.45278e-014
lhumerus -23.9561 -44.3919 90.8204
lradius 82.5041
lwrist 31.9085
lhand -21.8615 19.6324
lfingers 7.12502
lthumb 4.54249 49.5637
rfemur -24.0083 17.7706 9.19563
rtibia 46.3206
rfoot -25.16 -4.89134
rtoes -4.01896
lfemur -11.69 6.79082 -25.2822
ltibia 29.562
lfoot -24.6682 -3.64834
ltoes -20.7337
676
root -39.4734 16.4925 -5.91094 -362.717 54.8158 354.926
lowerback 4.37072 0.494947 -6.83696
upperback 5.50578 0.673183 -1.69549
thorax 3.21247 0.170172 2.06246
lowerneck -8.67978 2.37953 2.25306
upperneck 20.3441 3.61537 -2.39758
head 7.77817 1.7418 -0.821864
rclavicle 3.49861e-014 -1.90833e-014
rhumerus -42.8594 4.95093 -90.866
rradius 32.55
rwrist -4.73967
rhand -16.58 3.45594
rfingers 7.12502
rthumb 9.64059 -26.3035
lclavicle 3.49861e-014 -1.90833e-014
lhumerus -23.7768 -44.8296 90.5634
lradius 84.0991
lwrist 32.3377
lhand -21.61 19.5529
lfingers 7.12502
lthumb 4.78539 49.4789
rfemur -24.0506 18.0104 8.76146
rtibia 45.3505
rfoot -25.1763 -4.03716
rtoes -4.08578
lfemur -11.6055 6.35394 -25.1199
ltibia 29.5666
lfoot -24.9171 -4.25766
ltoes -20.8461
677
root -39.4456 16.4922 -5.84092 -362.665 55.9739 354.858
lowerback 4.40647 0.448712 -6.80276
upperback 5.53334 0.613257 -1.67917
thorax 3.22642 0.141428 2.06116
lowerneck -8.56409 2.29684 2.12021
upperneck 20.1423 3.49614 -2.28284
head 7.68297 1.68805 -0.77512
rclavicle 9.54166e-015 -2.8625e-014
rhumerus -43.0614 5.2864 -90.9706
rradius 32.7598
rwrist -4.9639
rhand -16.3914 3.46516
rfingers 7.12502
rthumb 9.82252 -26.2857
lclavicle 9.54166e-015 -2.8625e-014
lhumerus -23.6847 -45.1771 90.3556
lradius 85.57
lwrist 32.7381
lhand -21.3903 19.4653
lfingers 7.12502
lthumb 4.99746 49.3864
rfemur -24.0746 18.0187 8.38888
rtibia 44.4507
rfoot -25.1427 -3.00711
rtoes -4.07651
lfemur -11.5244 5.92572 -24.9587
ltibia 29.579
lfoot -25.2011 -4.84181
ltoes -21.014
678
root -39.416 16.491 -5.77149 -362.602 57.1106 354.798
lowerback 4.42088 0.396448 -6.7674
upperback 5.54406 0.545554 -1.65836
thorax 3.23519 0.108969 2.06414
lowerneck -8.40017 2.22685 1.99838
upperneck 19.9478 3.39951 -2.19198
head 7.58319 1.64427 -0.736432
rclavicle 2.50469e-014 7.95139e-015
rhumerus -43.2688 5.67396 -91.0704
rradius 32.9684
rwrist -5.18983
rhand -16.1546 3.52741
rfingers 7.12502
rthumb 10.051 -26.2126
lclavicle 2.50469e-014 7.95139e-015
lhumerus -23.6891 -45.4453 90.2036
lradius 86.9154
lwrist 33.1098
lhand -21.1998 19.3835
lfingers 7.12502
lthumb 5.18142 49.3001
rfemur -24.0838 17.8067 8.07838
rtibia 43.6156
rfoot -25.074 -1.81676
rtoes -3.97601
lfemur -11.4541 5.51524 -24.8004
ltibia 29.5967
lfoot -25.5061 -5.42297
ltoes -21.2263
